<svg xmlns="http://www.w3.org/2000/svg" width="44" height="38" style=""><rect id="backgroundrect" width="100%" height="100%" x="0" y="0" fill="none" stroke="none"/><g class="currentLayer" style=""><title>Layer 1</title><g id="svg_1" class="" fill-opacity="1" fill="#6b778c"><g id="svg_2" fill="#6b778c"><path fill="#6b778c" d="M40.904 1.323H13.47a2.653 2.653 0 0 0 0 5.308h27.433a2.655 2.655 0 0 0 0-5.308z" id="svg_3"/></g><g id="svg_4" fill="#6b778c"><path fill="#6b778c" d="M28.962 11.507H13.47a2.653 2.653 0 0 0 0 5.307h15.492a2.653 2.653 0 0 0 0-5.307z" id="svg_5"/></g><g id="svg_6" fill="#6b778c"><path fill="#6b778c" d="M40.904 21.691H13.47a2.653 2.653 0 0 0 0 5.307h27.433a2.654 2.654 0 0 0 0-5.307z" id="svg_7"/></g><g id="svg_8" fill="#6b778c"><path fill="#6b778c" d="M28.962 31.875H13.47a2.653 2.653 0 0 0 0 5.308h15.492a2.653 2.653 0 0 0 0-5.308z" id="svg_9"/></g><g id="svg_10" fill="#6b778c"><path fill="#6b778c" d="M8.179 4.805a4.13 4.13 0 1 1-8.262 0 4.131 4.131 0 1 1 8.262 0z" id="svg_11"/></g><g id="svg_12" fill="#6b778c"><path fill="#6b778c" d="M8.179 25.824a4.131 4.131 0 1 1-8.262 0 4.131 4.131 0 0 1 8.262 0z" id="svg_13"/></g></g></g></svg>