<svg xmlns="http://www.w3.org/2000/svg" width="55" height="56" viewBox="0 0 55 56"><g><g><path fill="#42526e" d="M52.705 30.378l-22.244 22.8a6.74 6.74 0 0 1-4.81 2.015l-21.367-.05a4.296 4.296 0 0 1-4.275-4.276l-.05-21.364c.087-1.724.73-3.55 2.016-4.81l22.8-22.243c2.619-2.564 6.854-2.542 9.446.05l18.437 18.438a6.687 6.687 0 0 1 1.957 4.743 6.685 6.685 0 0 1-1.91 4.697zM3.679 29.49l.052 21.367c0 .31.256.565.565.565l21.364.052a3.008 3.008 0 0 0 2.145-.897l22.243-22.8a3.002 3.002 0 0 0-.023-4.21L31.587 5.127a3 3 0 0 0-4.21-.022L4.576 27.348a3.013 3.013 0 0 0-.897 2.135z"/></g><g><path fill="#303c42" d="M27.287 36.569a8.7 8.7 0 0 1-8.7 8.7 8.7 8.7 0 0 1-8.702-8.7 8.7 8.7 0 1 1 17.402 0z"/></g></g></svg>