<svg xmlns="http://www.w3.org/2000/svg" width="44" height="38" viewBox="0 0 44 38"><g><g><path fill="#42526e" d="M40.904 1.323H13.47a2.653 2.653 0 0 0 0 5.308h27.433a2.655 2.655 0 0 0 0-5.308z"/></g><g><path fill="#303c42" d="M28.962 11.507H13.47a2.653 2.653 0 0 0 0 5.307h15.492a2.653 2.653 0 0 0 0-5.307z"/></g><g><path fill="#303c42" d="M40.904 21.691H13.47a2.653 2.653 0 0 0 0 5.307h27.433a2.654 2.654 0 0 0 0-5.307z"/></g><g><path fill="#303c42" d="M28.962 31.875H13.47a2.653 2.653 0 0 0 0 5.308h15.492a2.653 2.653 0 0 0 0-5.308z"/></g><g><path fill="#303c42" d="M8.179 4.805a4.13 4.13 0 1 1-8.262 0 4.131 4.131 0 1 1 8.262 0z"/></g><g><path fill="#303c42" d="M8.179 25.824a4.131 4.131 0 1 1-8.262 0 4.131 4.131 0 0 1 8.262 0z"/></g></g></svg>