<svg xmlns="http://www.w3.org/2000/svg" width="36" height="38" viewBox="0 0 36 38"><g><g><path fill="#42526e" d="M24.84.804a9.03 9.03 0 0 0-1.621-.146 8.724 8.724 0 0 0-6.121 2.5C13.09 7.06 8.787 11.363 3.556 16.7 1.142 19.163.072 22.194.088 26.524v.001c0 5.24 4.405 10.142 10.03 11.163 4.642.845 8.764-.509 12.256-4.018 3.76-3.777 5.489-5.512 9.26-9.28l3.116-3.112c1.692-1.69.894-2.52.632-2.793-.313-.327-.636-.487-.988-.49h-.012c-.528 0-1.15.354-1.847 1.051l-2.453 2.467c-3.452 3.456-6.904 6.913-10.371 10.354-1.941 1.926-4.657 2.965-7.37 2.902-2.633-.079-5.012-1.16-6.698-3.047-3.33-3.725-3.181-9.437.337-13.004 3.135-3.178 6.297-6.33 9.459-9.483l3.355-3.347c1.192-1.19 2.708-1.879 4.268-1.938 1.556-.042 3.046.524 4.16 1.64 2.408 2.412 2.338 5.987-.166 8.5-2.623 2.632-5.251 5.257-7.88 7.883l-2.8 2.804a63.28 63.28 0 0 1-2.168 2.126c-.807.74-1.822.792-2.716.14-.841-.615-1.067-1.543-.62-2.546.173-.383.484-.693.76-.967l.086-.086c1.594-1.6 3.19-3.199 4.788-4.796 1.63-1.633 3.263-3.265 4.89-4.9.519-.52 1.252-1.536.335-2.487-.31-.322-.667-.487-1.063-.49-.48-.012-1.021.248-1.507.732l-1.506 1.502a3223.956 3223.956 0 0 0-8.471 8.477c-2.18 2.191-2.29 5.44-.255 7.555.959.997 2.27 1.557 3.692 1.575 1.469.047 2.892-.552 3.959-1.607 5.133-5.074 9.296-9.24 13.103-13.11 2.652-2.698 3.314-6.66 1.687-10.096-1.256-2.652-3.636-4.474-6.53-4.995z"/></g></g></svg>