<svg xmlns="http://www.w3.org/2000/svg" width="48" height="43" viewBox="0 0 48 43"><g><g><path fill="#42526e" d="M.211 39.598c.002 1.875.964 2.867 2.782 2.87 12.197.02 24.38.02 36.211-.002 1.69-.003 2.705-.997 2.718-2.66.036-4.56.028-9.197.02-13.684l-.006-3.174c0-.98-.407-1.621-1.24-1.96-.63-.256-1.254-.214-1.756.122-.586.389-.926 1.12-.934 2.004-.026 3.15-.023 6.3-.019 9.452l.003 3.813V38.442H4.235V4.705h6.872c7.986 0 15.972.002 23.958 0h.23c.424.007.833.006 1.22-.065 1.045-.19 1.736-1.071 1.643-2.094-.097-1.057-.984-1.776-2.114-1.778L33.226.79c-3.884.036-7.768.056-11.65.065C18.11.85 14.645.826 11.18.799 8.676.78 6.172.762 3.668.75H3.61c-1.354 0-2.182.222-2.68.716-.494.49-.716 1.296-.718 2.612a10782.9 10782.9 0 0 0 0 35.519z"/></g><g><path fill="#303c42" d="M47.128 4.654c-.365-.386-.813-.594-1.295-.603-.62-.006-1.264.298-1.844.87a770.692 770.692 0 0 0-4.526 4.515L22.335 26.614l-2.65-2.665c-1.812-1.822-3.574-3.595-5.345-5.358-.583-.58-1.208-.887-1.807-.887l-.022.001c-.477.007-.927.217-1.3.608-.814.853-.696 2.052.3 3.055a1945.64 1945.64 0 0 0 9.085 9.086c1.25 1.237 2.215 1.245 3.442.018 7.597-7.58 15.185-15.17 22.767-22.764 1.017-1.019 1.14-2.19.323-3.055z"/></g></g></svg>