<svg xmlns="http://www.w3.org/2000/svg" width="50" height="50" viewBox="0 0 50 50"><g><g><path fill="#42526e" d="M34.82 30.184l-7.864-6.149V12.546a1.904 1.904 0 0 0-1.907-1.906 1.904 1.904 0 0 0-1.907 1.906V24.99c0 .6.282 1.167.762 1.525l8.629 6.721c.343.258.744.382 1.142.382.582 0 1.154-.262 1.527-.765a1.903 1.903 0 0 0-.381-2.668z"/></g><g><path fill="#303c42" d="M25.049.217c13.576 0 24.62 11.043 24.62 24.619 0 13.577-11.044 24.62-24.62 24.62S.429 38.413.429 24.836C.429 11.26 11.473.216 25.049.216zm0 45.425c11.47 0 20.806-9.335 20.806-20.806 0-11.47-9.333-20.805-20.806-20.805-11.471 0-20.806 9.335-20.806 20.805 0 11.47 9.335 20.806 20.806 20.806z"/></g></g></svg>