<svg xmlns="http://www.w3.org/2000/svg" width="30" height="30" viewBox="0 0 40 36"><g><g><path fill="#42526e" d="M36.535 19.993H2.714a2.654 2.654 0 1 0 0 5.307h33.82a2.653 2.653 0 1 0 0-5.307z"/></g><g><path fill="#303c42" d="M36.535 9.955H2.714a2.654 2.654 0 1 0 0 5.307h33.82a2.653 2.653 0 1 0 0-5.307z"/></g><g><path fill="#303c42" d="M36.535-.082H2.714a2.654 2.654 0 1 0 0 5.308h33.82a2.654 2.654 0 0 0 0-5.308z"/></g><g><path fill="#303c42" d="M19.962 30.03H2.713a2.654 2.654 0 0 0 0 5.308h17.25a2.653 2.653 0 0 0 0-5.307z"/></g></g></svg>