<svg xmlns="http://www.w3.org/2000/svg" width="45" height="49" viewBox="0 0 45 49"><g><g><path fill="#303c42" d="M44.233 43.46l-.024.003c-.002.108-.002.236-.003.385-.012 2.819-1.825 4.64-4.619 4.642a40727.876 40727.876 0 0 1-34.796-.002c-1.386-.001-2.556-.443-3.382-1.28-.806-.815-1.225-1.95-1.21-3.28.011-.98.001-1.521-.006-1.886-.014-.792-.009-.822.215-2.325l.115-.772c.923-6.235 4.25-11.05 9.886-14.31l.022-.012c-5.359-7.438-2.976-15.965 2.09-20.311a14.826 14.826 0 0 1 19.197-.135c5.205 4.336 7.7 12.893 2.28 20.404l.287.18c.533.336 1.085.683 1.6 1.076 5.348 4.08 8.145 9.518 8.313 16.163.012.483.02.736.024.859a.94.94 0 0 1 .007.11zM3.193 41.828c.007.302.017.792.001 1.816-.012.748.1 1.217.354 1.474.256.26.734.383 1.505.383h21.669c4.273 0 8.547 0 12.82-.004 1.222-.002 1.656-.433 1.662-1.648.002-.57.004-.938.037-1.18a64.59 64.59 0 0 1-.058-1.042c-.329-6.456-3.379-11.374-9.064-14.615-.095-.05-.455-.03-.67.085-.499.264-.98.57-1.462.873-.83.525-1.69 1.068-2.634 1.408-5.13 1.852-9.97 1.079-14.382-2.298-.19-.147-.305-.21-.417-.21-.09 0-.179.042-.306.114-5.04 2.854-7.99 7.034-8.773 12.426l-.155 1.05c-.137.926-.137.926-.128 1.368zm27.183-17.722a11.885 11.885 0 0 0 3.645-8.48C34.08 9.164 28.867 3.822 22.4 3.72a11.711 11.711 0 0 0-8.436 3.328c-2.27 2.204-3.546 5.178-3.59 8.373-.038 6.577 5.085 11.839 11.665 11.982 3.116.06 6.07-1.104 8.334-3.298z"/></g></g></svg>