<svg xmlns="http://www.w3.org/2000/svg" xmlns:xlink="http://www.w3.org/1999/xlink" width="537.8965454101562" height="280.4137878417969" style=""><rect id="backgroundrect" width="100%" height="100%" x="0" y="0" fill="none" stroke="none" class="" style=""/><defs><path id="a" d="M.251 0h530v108h-530z"/><path id="c" d="M.211.32h30.785v17.81H.21z"/><path id="e" d="M.388.32h30.784v17.81H.388z"/><path id="g" d="M.72.32h30.784v17.81H.719z"/><path id="i" d="M.89.32h30.784v17.81H.889z"/><filter x="-6.1%" y="-8.2%" width="112.4%" height="117.5%" filterUnits="objectBoundingBox" id="k"><feOffset dx="-3" dy="2" in="SourceAlpha" result="shadowOffsetOuter1"/><feColorMatrix values="0 0 0 0 0 0 0 0 0 0 0 0 0 0 0 0 0 0 0.209680944 0" in="shadowOffsetOuter1" result="shadowMatrixOuter1"/><feMerge><feMergeNode in="shadowMatrixOuter1"/><feMergeNode in="SourceGraphic"/></feMerge></filter><path d="M83.882 79.068l22.84-19.698C64.84 41.427 40.642 28.45 34.13 20.438 33.677 17.435 22.743-1.616 17.08 2.213 13.989-1.032 6.925-1.492 6.925 6.264-.481 4.662-1.577 14.35 1.887 16.843c-4.862 2.505.791 15.95 15.192 17.771 6.28 2.874 28.547 17.691 66.803 44.454z" id="l"/><filter x="-6.1%" y="-8.2%" width="112.4%" height="117.5%" filterUnits="objectBoundingBox" id="n"><feOffset dx="3" dy="2" in="SourceAlpha" result="shadowOffsetOuter1"/><feColorMatrix values="0 0 0 0 0 0 0 0 0 0 0 0 0 0 0 0 0 0 0.209680944 0" in="shadowOffsetOuter1" result="shadowMatrixOuter1"/><feMerge><feMergeNode in="shadowMatrixOuter1"/><feMergeNode in="SourceGraphic"/></feMerge></filter><path d="M83.882 79.068l22.84-19.698C64.84 41.427 40.642 28.45 34.13 20.438 33.677 17.435 22.743-1.616 17.08 2.213 13.989-1.032 6.925-1.492 6.925 6.264-.481 4.662-1.577 14.35 1.887 16.843c-4.862 2.505.791 15.95 15.192 17.771 6.28 2.874 28.547 17.691 66.803 44.454z" id="o"/></defs><g class="currentLayer" style=""><title>Layer 1</title><mask id="b" fill="#fff" transform="translate(0,0.8620690107345581) translate(1.7241380214691162,-6.896552085876465) "><use xlink:href="#a" id="svg_2"/></mask><ellipse fill="#EDDBF4" mask="url(#b)" cx="267.4251403808594" cy="136.99951171875" rx="138.7010040283203" ry="126" id="svg_4" class=""/><g mask="url(#b)" id="svg_5" class=""><path d="M232.32613802146912,165.9255169248581 s-4.064,-4.689 -8.521,-5.053 c-4.457,-0.3650000000000001 -9.68,3.027 -13.622,-1.6860000000000004 c-3.942,-4.715 -1.195,-8.368 1.367,-8.382 c2.56,-0.015000000000000006 4.92,1.4260000000000002 5.509,4.261 c0,0 3.395,-6.616 -2.375,-10.823 c-5.77,-4.208 -17.009,-4.971 -21.806,6.69 c-4.795,11.662 -4.457,17.635 -4.457,17.635 s0.6350000000000002,2.44 2.249,-0.3360000000000002 c1.6150000000000002,-2.777 3.093,-3.725 3.093,-3.725 s0.027000000000000014,11.308 5.729,20.158 c1.074,1.45 2.062,1.246 1.994,-1.568 c-0.06900000000000003,-2.815 1.124,-5.761 1.124,-5.761 s2.299,14.182 22.052,18.715 l7.664,-30.125 z" fill="#405660" id="svg_6"/><path d="M311.58413802146913,162.8455169248581 c-1.871,-15.423 -5.004,-25.555 -8.66,-31.783 c-4.88,-8.313 -9.421,-8.137 -9.421,-8.137 l-26.55,1.11 l-26.551,-1.11 s-4.542,-0.17600000000000005 -9.421,8.137 c-3.6550000000000002,6.228 -6.788,16.36 -8.659,31.782 c-8.334,2.134 -14.502,9.657 -14.502,18.638 c0,9.25 6.537,16.97 15.25,18.83 h87.765 c8.715,-1.86 15.252,-9.58 15.252,-18.83 c0,-8.98 -6.17,-16.504 -14.504,-18.638 " fill="#516772" id="svg_7"/><path d="M326.9741380214691,181.4825169248581 c0,-8.98 -6.17,-16.504 -14.504,-18.637 c-1.87,-15.423 -5.004,-25.555 -8.659,-31.782 c-4.878,-8.314 -9.42,-8.138 -9.42,-8.138 l-26.551,1.11 l-0.033000000000000015,-0.0010000000000000005 l-0.6040000000000002,7.526 V152.9655169248581 s-4.127,3.022 -6.65,5.288 c-0.6310000000000002,0.6300000000000002 1.729,-0.126 3.325,-0.7550000000000002 c0,0 -0.802,1.6590000000000005 -0.99,2.246 c-0.19000000000000006,0.5860000000000002 0.17200000000000001,0.797 0.937,0 c0.7650000000000002,-0.799 3.8200000000000003,-1.303 3.8200000000000003,-1.303 v41.872 h44.077 c8.714,-1.86 15.251,-9.58 15.251,-18.83 " fill="#627885" id="svg_8"/><path d="M266.4741380214691,187.7695169248581 c-11.029,0 -20.052,-9.002 -20.052,-20.006 v-8.387 c0,-11.003 9.023,-20.006 20.051,-20.006 c11.028,0 20.051,9.003 20.051,20.006 v8.387 c0,11.004 -9.023,20.006 -20.05,20.006 " fill="#E4E7E9" id="svg_9"/><path d="M260.58613802146914,158.2645169248581 c-0.794,1.48 2.026,0.3030000000000001 3.622,-0.3260000000000001 c0,0 -1.098,1.23 -1.287,1.8170000000000002 c-0.19000000000000006,0.5870000000000002 0.3060000000000001,0.8 1.318,0.3550000000000001 c1.7690000000000001,-0.778 3.44,1.509 3.44,1.509 v26.139 c10.824,-0.24000000000000005 19.609,-9.129 19.609,-19.983 v-8.387 c0,-11.004 -9.024,-20.006 -20.052,-20.006 v11.317 s-3.6270000000000002,3.116 -6.65,7.565 " fill="#FEFEFE" id="svg_10"/><g id="svg_11"><mask id="d" fill="#fff" transform="translate(0,0.8620690107345581) translate(1.7241380214691162,-6.896552085876465) translate(288.64300537109375,189.22999572753906) "><use xlink:href="#c" id="svg_12"/></mask><path d="M290.61514339256286,193.56751265239717 c0.18800000000000008,-2.79 2.492,-5.004 5.338,-5.004 l0.03000000000000002,0.003000000000000003 C296.1501433925629,185.75351265239715 298.4671433925629,183.51551265239715 301.32714339256285,183.51551265239715 c2.452,0 4.497,1.649 5.143,3.887 a5.33,5.33 0 0 1 2.68,-0.7400000000000003 c2.362,0 4.345,1.53 5.066,3.641 a5.343,5.343 0 0 1 1.774,-0.3220000000000002 a5.368,5.368 0 0 1 5.373,5.362 c0,0.17400000000000004 -0.035,0.3370000000000003 -0.05000000000000003,0.508 l0.05000000000000003,0.003000000000000003 v1.19 c0,2.363 -1.969,4.28 -4.398,4.28 H294.97314339256286 c-2.426,0 -4.3950000000000005,-1.916 -4.3950000000000005,-4.277 V193.56551265239716 l0.03700000000000001,0.0020000000000000013 z" fill="#7B8C95" mask="url(#d)" id="svg_13"/></g><g id="svg_14"><mask id="f" fill="#fff" transform="translate(0,0.8620690107345581) translate(1.7241380214691162,-6.896552085876465) translate(210.91700744628906,189.22999572753906) "><use xlink:href="#e" id="svg_15"/></mask><path d="M243.77714546775817,193.56751265239717 c-0.18800000000000008,-2.79 -2.493,-5.004 -5.338,-5.004 c-0.011000000000000008,0 -0.02100000000000001,0.003000000000000003 -0.03100000000000002,0.003000000000000003 C238.24114546775817,185.75351265239715 235.92514546775817,183.51551265239715 233.06514546775819,183.51551265239715 c-2.452,0 -4.497,1.649 -5.143,3.887 a5.327,5.327 0 0 0 -2.681,-0.7400000000000003 c-2.361,0 -4.345,1.53 -5.066,3.641 a5.343,5.343 0 0 0 -1.7730000000000001,-0.3220000000000002 a5.368,5.368 0 0 0 -5.373,5.362 c0,0.17400000000000004 0.03400000000000002,0.3370000000000003 0.05000000000000003,0.508 l-0.05000000000000003,0.003000000000000003 v1.19 c0,2.363 1.97,4.28 4.398,4.28 h21.991 c2.427,0 4.3950000000000005,-1.916 4.3950000000000005,-4.277 V193.56551265239716 l-0.03600000000000001,0.0020000000000000013 z" fill="#7B8C95" mask="url(#f)" id="svg_16"/></g><path d="M303.2741380214691,144.4115169248581 c-2.356,-12.925 -8.202,-18.855 -8.202,-18.855 l-55.887,-2.6310000000000002 s-6.586,8.561 -8.942,21.486 c-2.355,12.925 -1.177,49.52 -1.177,49.52 h19.515 s0.3520000000000001,-36.827 0.3520000000000001,-37.35 c0,-7.88 7.98,-14.267 17.825,-14.267 c9.845,0 17.826,6.3870000000000005 17.826,14.267 c0,0.548 0.3510000000000001,37.35 0.3510000000000001,37.35 h19.516 s1.177,-36.595 -1.178,-49.52 " fill="#809298" id="svg_17"/><g id="svg_18"><mask id="h" fill="#fff" transform="translate(0,0.8620690107345581) translate(1.7241380214691162,-6.896552085876465) translate(220.0019989013672,189.22999572753906) "><use xlink:href="#g" id="svg_19"/></mask><path d="M253.1931369228363,193.56751265239717 c-0.18700000000000008,-2.79 -2.492,-5.004 -5.337,-5.004 c-0.012000000000000005,0 -0.02200000000000002,0.003000000000000003 -0.03200000000000002,0.003000000000000003 c-0.1650000000000001,-2.813 -2.482,-5.05 -5.343,-5.05 c-2.451,0 -4.497,1.649 -5.143,3.887 a5.327,5.327 0 0 0 -2.68,-0.7400000000000003 c-2.362,0 -4.345,1.53 -5.066,3.641 a5.343,5.343 0 0 0 -1.7730000000000001,-0.3220000000000002 a5.368,5.368 0 0 0 -5.374,5.362 c0,0.17400000000000004 0.035,0.3370000000000003 0.05000000000000003,0.508 l-0.05000000000000003,0.003000000000000003 v1.19 c0,2.363 1.97,4.28 4.398,4.28 H248.83613692283632 c2.427,0 4.3950000000000005,-1.916 4.3950000000000005,-4.277 V193.56551265239716 l-0.03700000000000001,0.0020000000000000013 z" fill="#FEFEFE" mask="url(#h)" id="svg_20"/></g><path d="M267.42313802146913,142.3135169248581 c9.844,0 17.825,6.389 17.825,14.269 c0,0.548 0.3520000000000001,37.349 0.3520000000000001,37.349 h19.516 s1.177,-36.594 -1.178,-49.52 c-2.355,-12.925 -8.103,-21.19 -8.103,-21.19 l-28.373,2.335 l-0.4820000000000001,6.004 v10.771 c0.14800000000000005,-0.003000000000000002 0.2940000000000001,-0.018000000000000006 0.4430000000000001,-0.018000000000000006 M311.6591380214691,68.83051692485809 s5.77,-20.868 -5.603,-47.902 c-4.85,-10.512 -6.69,-11.18 -9.533,-8.677 c-2.843,2.504 -17.56,16.855 -21.575,30.37 h-15.01 c-4.013,-13.515 -18.732,-27.866 -21.574,-30.37 c-2.8440000000000003,-2.503 -4.683,-1.835 -9.534,8.677 c-11.373,27.034 -5.603,47.902 -5.603,47.902 c-7.024,12.606 -9.281,42.21 -9.281,42.21 s6.271,-9.637 24.082,-5.632 c4.856,1.092 9.247,2.914 13.071,4.984 c3.2800000000000002,8.683 7.979,11.671 11.5,12.617 c2.757,0.17 4.612,0.20800000000000005 4.823,0.21200000000000005 h0.021000000000000008 a120.199,120.199 0 0 0 4.844,-0.21200000000000005 c3.521,-0.9460000000000002 8.22,-3.934 11.5,-12.617 c3.825,-2.07 8.215,-3.8920000000000003 13.07,-4.984 c17.812,-4.005 24.084,5.632 24.084,5.632 s-2.258,-29.604 -9.282,-42.21 " fill="#8C9DA5" id="svg_21"/><path d="M267.45413802146913,123.2215169248581 V68.67551692485809 c-3.8890000000000002,-5.017 -3.262,-9.627 -4.922,-12.13 c-1.6600000000000001,-2.503 -7.873,-2.754 -7.873,-2.754 c0.6270000000000002,-0.7500000000000002 7.025,-3.88 7.025,-3.88 c-2.6350000000000002,-0.3750000000000001 -7.025,0 -7.025,0 c6.272,-4.756 12.795,-7.289 12.795,-7.289 h-7.505 c-4.015,-13.517 -18.732,-27.868 -21.576,-30.371 c-2.842,-2.504 -4.683,-1.835 -9.532,8.678 c-11.374,27.032 -5.603,47.9 -5.603,47.9 c-7.025,12.608 -9.283,42.211 -9.283,42.211 s6.272,-9.637 24.084,-5.632 c4.854,1.091 9.246,2.914 13.071,4.984 c3.2800000000000002,8.682 7.979,11.672 11.5,12.618 c2.7560000000000002,0.16900000000000007 4.611,0.20700000000000005 4.822,0.21100000000000005 h0.022000000000000013 " fill="#627885" id="svg_22"/><path d="M302.3331380214691,89.2635169248581 c1.963,-5.882 4.6850000000000005,-20.025 -9.865,-27.534 c-14.24,-7.348 -24.588,6.867 -25.025,7.48 c-0.4370000000000001,-0.6130000000000002 -10.785,-14.828 -25.024,-7.48 c-14.551,7.51 -11.829,21.652 -9.865,27.534 c0,0 -13.968,-2.754 -18.61,21.777 l5.52,-0.3330000000000002 v4.171 c3.847,-1.836 9.868,-1.669 18.565,3.17 c8.506,4.734 28.52,5.157 29.393,5.173 h0.042000000000000016 c0.8740000000000002,-0.016000000000000007 20.887,-0.4400000000000001 29.394,-5.172 c8.696,-4.84 14.717,-5.007 18.564,-3.17 l0.041000000000000016,-4.172 l5.479,0.3330000000000002 c-4.642,-24.53 -18.61,-21.777 -18.61,-21.777 " fill="#FEFEFE" id="svg_23"/><path d="M238.02913802146912,105.40851692485809 c-17.813,-4.005 -24.083,5.632 -24.083,5.632 l5.518,-0.3340000000000002 v4.172 c3.847,-1.835 9.867,-1.6680000000000001 18.565,3.17 c8.697000000000001,4.84 29.435,5.174 29.435,5.174 s-11.623,-13.81 -29.435,-17.814 M296.8991380214691,105.40851692485809 c17.813,-4.005 24.084,5.632 24.084,5.632 l-5.52,-0.3340000000000002 v4.172 c-3.845,-1.835 -9.866,-1.6680000000000001 -18.564,3.17 c-8.697000000000001,4.84 -29.435,5.174 -29.435,5.174 s11.623,-13.81 29.435,-17.814 " fill="#E4E7E9" id="svg_24"/><path d="M225.4851380214691,65.7345169248581 s3.135,-13.392 14.426,-18.523 c6.02,-2.503 7.651,-0.7500000000000002 8.78,-5.757 c1.1280000000000001,-5.007 -5.87,-20.906 -10.411,-25.031 c-2.384,-2.253 -4.265,-0.8770000000000002 -5.52,1.6270000000000002 c-1.254,2.503 -11.414,23.279 -7.275,47.684 " fill="#DADFE1" id="svg_25"/><path d="M239.70113802146912,22.847516924858095 s4.766,6.341 6.188,13.517 c1.4220000000000002,7.176 -2.676,5.924 -5.185,7.26 c-2.508,1.335 -5.184,2.502 -5.937,3.003 c-0.7520000000000002,0.5 -2.09,-0.8340000000000002 0,-2.252 c2.091,-1.42 4.934,-3.839 2.7600000000000002,-5.007 c-2.175,-1.1680000000000001 -3.93,-1.835 -4.683,-2.754 c-0.7530000000000002,-0.917 0,-1 1.7560000000000002,-0.917 c1.7570000000000001,0.08300000000000003 3.6100000000000003,0.08300000000000003 2.055,-2.17 c-1.553,-2.253 -1.8880000000000003,-3.67 -1.8880000000000003,-5.006 c0,-1.335 0.8370000000000002,-0.8340000000000002 2.342,0.917 c1.505,1.7530000000000001 2.006,2.588 1.839,0.16700000000000007 c-0.16700000000000007,-2.419 -0.515,-8.637 0.7530000000000002,-6.758 " fill="#F3F5F5" id="svg_26"/><path d="M255.50613802146913,78.0825169248581 c0,3.18 -2.583,5.757 -5.77,5.757 c-3.187,0 -5.77,-2.577 -5.77,-5.757 c0,-3.18 2.583,-8.03 5.77,-8.03 c3.187,0 5.77,4.85 5.77,8.03 " fill="#1786C4" id="svg_27"/><path d="M253.07013802146912,77.43551692485809 a3.33,3.33 0 0 1 -3.334,3.3280000000000003 a3.33,3.33 0 0 1 -3.334,-3.327 a3.33,3.33 0 0 1 3.334,-3.327 a3.33,3.33 0 0 1 3.334,3.327 " fill="#050706" id="svg_28"/><path d="M250.8301380214691,74.93251692485809 a2.016,2.016 0 0 1 -2.018,2.014 a2.016,2.016 0 0 1 -2.018,-2.014 c0,-1.111 0.903,-2.013 2.018,-2.013 c1.114,0 2.018,0.902 2.018,2.013 " fill="#FEFEFE" id="svg_29"/><path d="M276.78813802146914,101.2785169248581 c0,2.972 -4.174,6.195 -9.324,6.195 c-5.15,0 -9.324,-3.223 -9.324,-6.195 c0,-2.972 4.175,-4.569 9.324,-4.569 c5.15,0 9.324,1.597 9.324,4.569 " fill="#393A3A" id="svg_30"/><path d="M309.40113802146914,65.7345169248581 s-3.136,-13.392 -14.425,-18.523 c-6.02,-2.503 -7.652,-0.7500000000000002 -8.78,-5.757 c-1.129,-5.007 5.87,-20.906 10.41,-25.031 c2.384,-2.253 4.266,-0.8770000000000002 5.52,1.6270000000000002 c1.254,2.503 11.415,23.279 7.275,47.684 " fill="#DADFE1" id="svg_31"/><path d="M295.18513802146913,22.847516924858095 s-4.766,6.341 -6.188,13.517 c-1.4220000000000002,7.176 2.676,5.924 5.185,7.26 c2.508,1.335 5.184,2.502 5.937,3.003 c0.7520000000000002,0.5 2.09,-0.8340000000000002 0,-2.252 c-2.09,-1.42 -4.934,-3.839 -2.7600000000000002,-5.007 c2.175,-1.1680000000000001 3.93,-1.835 4.683,-2.754 c0.7530000000000002,-0.917 0,-1 -1.7560000000000002,-0.917 c-1.7570000000000001,0.08300000000000003 -3.609,0.08300000000000003 -2.056,-2.17 c1.554,-2.253 1.8900000000000001,-3.67 1.8900000000000001,-5.006 c0,-1.335 -0.8380000000000002,-0.8340000000000002 -2.343,0.917 c-1.505,1.7530000000000001 -2.006,2.588 -1.839,0.16700000000000007 c0.16700000000000007,-2.419 0.516,-8.637 -0.7530000000000002,-6.758 " fill="#F3F5F5" id="svg_32"/><path d="M290.92013802146914,78.0825169248581 c0,3.18 -2.583,5.757 -5.77,5.757 c-3.186,0 -5.77,-2.577 -5.77,-5.757 c0,-3.18 2.584,-8.03 5.77,-8.03 c3.187,0 5.77,4.85 5.77,8.03 " fill="#1786C4" id="svg_33"/><path d="M288.4841380214691,77.43551692485809 a3.33,3.33 0 0 1 -3.333,3.3280000000000003 a3.331,3.331 0 0 1 -3.335,-3.327 a3.33,3.33 0 0 1 3.335,-3.327 a3.33,3.33 0 0 1 3.334,3.327 " fill="#050706" id="svg_34"/><path d="M286.2441380214691,74.93251692485809 a2.016,2.016 0 0 1 -2.018,2.014 a2.016,2.016 0 0 1 -2.017,-2.014 c0,-1.111 0.903,-2.013 2.017,-2.013 c1.115,0 2.018,0.902 2.018,2.013 " fill="#FEFEFE" id="svg_35"/><path d="M296.8571380214691,118.04851692485809 c-11.27,5.068 -28.971,5.171 -29.414,5.173 c-0.4430000000000001,-0.002000000000000001 -18.143,-0.10500000000000002 -29.415,-5.173 v5.173 s10.063,5.833 29.394,5.966 H267.4641380214691 c19.332,-0.133 29.393,-5.966 29.393,-5.966 v-5.173 z" fill="#1786C4" id="svg_36"/><path d="M267.44413802146914,114.41951692485809 c-13.699,-0.013000000000000006 -18.632,-12.327 -18.632,-12.327 c4.718,24.38 18.19,21.244 18.631,21.135 c0.4410000000000001,0.11000000000000003 13.913,3.245 18.631,-21.135 c0,0 -4.933,12.314 -18.63,12.327 " fill="#393A3A" id="svg_37"/><path d="M267.4641380214691,114.42351692485809 v-0.004000000000000002 l-0.021000000000000008,0.002000000000000001 l-0.021000000000000008,-0.002000000000000001 v0.004000000000000002 c-0.4340000000000001,0.042000000000000016 -6.8950000000000005,0.6150000000000002 -10.973,-3.018 v15.029 c0,5.246 3.684,10.49 10.973,10.511 v0.002000000000000001 H267.4641380214691 v-0.002000000000000001 c7.289,-0.020000000000000007 10.973,-5.265 10.973,-10.511 v-15.03 c-4.078,3.6340000000000003 -10.54,3.061 -10.973,3.02 " fill="#FAD7DA" id="svg_38"/><path d="M277.3061380214691,131.3305169248581 c0.020000000000000007,-0.040000000000000015 0.04300000000000002,-0.07500000000000002 0.06200000000000002,-0.11500000000000003 c-0.6720000000000004,0.24700000000000005 -6.615,4.952 -12.371,2.592 c-6.104,-2.503 -4.767,-13.955 -4.767,-13.955 c7.652,4.068 14.681000000000001,0.6960000000000004 18.229,-1.806 v-6.642 c-4.08,3.6340000000000003 -10.54,3.062 -10.974,3.019 v-0.004000000000000002 l-0.021000000000000008,0.002000000000000001 a0.3880000000000001,0.3880000000000001 0 0 1 -0.021000000000000008,-0.002000000000000001 v0.004000000000000002 c-0.4330000000000001,0.04300000000000002 -6.8950000000000005,0.6150000000000002 -10.973,-3.019 v15.03 c0,5.247 3.685,10.49 10.973,10.511 v0.002000000000000001 l0.020000000000000007,-0.0010000000000000005 l0.022000000000000013,0.0010000000000000005 v-0.002000000000000001 c2.42,-0.007000000000000004 4.434,-0.5980000000000002 6.057,-1.566 c0,0 2.276,-1.166 3.7640000000000002,-4.049 " fill="#EAB8BB" id="svg_39"/><path d="M255.08913802146913,112.7525169248581 s12.58,6.412 23.348,-1.347 c0,0 -10.849,6.542 -22.21,-0.3900000000000001 l-1.138,1.737 z" fill="#393A3A" id="svg_40"/><path d="M264.1671380214691,115.24151692485809 s4.055,9.196 3.511,13.452 c0,0 3.638,-9.006 3.01,-13.452 h-6.521 z" fill="#EAB8BB" id="svg_41"/><g id="svg_42"><mask id="j" fill="#fff" transform="translate(0,0.8620690107345581) translate(1.7241380214691162,-6.896552085876465) translate(278.54901123046875,189.22999572753906) "><use xlink:href="#i" id="svg_43"/></mask><path d="M281.19914925193785,193.56751265239717 c0.18700000000000008,-2.79 2.492,-5.004 5.337,-5.004 c0.011000000000000008,0 0.02200000000000002,0.003000000000000003 0.03200000000000002,0.003000000000000003 C286.73314925193785,185.75351265239715 289.05014925193785,183.51551265239715 291.91114925193784,183.51551265239715 c2.451,0 4.496,1.649 5.143,3.887 a5.33,5.33 0 0 1 2.68,-0.7400000000000003 c2.362,0 4.345,1.53 5.066,3.641 a5.343,5.343 0 0 1 1.7730000000000001,-0.3220000000000002 a5.368,5.368 0 0 1 5.374,5.362 c0,0.17400000000000004 -0.035,0.3370000000000003 -0.05000000000000003,0.508 l0.05000000000000003,0.003000000000000003 v1.19 c0,2.363 -1.969,4.28 -4.399,4.28 H285.5581492519379 c-2.427,0 -4.396,-1.916 -4.396,-4.277 V193.56551265239716 l0.03700000000000001,0.0020000000000000013 z" fill="#FEFEFE" mask="url(#j)" id="svg_44"/></g></g><g mask="url(#b)" id="svg_56" class=""><g id="svg_57"><rect fill="#0079BF" x="124.44913482666016" width="30" height="29" rx="2" y="59.96551513671875" id="svg_58"/><path d="M133.29213802146913,70.9605169248581 h-0.6070000000000003 c-0.6910000000000006,0 -1.282,0.24400000000000008 -1.771,0.7340000000000003 c-0.49000000000000016,0.48900000000000016 -0.7340000000000003,1.08 -0.7340000000000003,1.771 v6.264 c0,0.6910000000000006 0.24400000000000008,1.282 0.7340000000000003,1.771 c0.49000000000000016,0.49000000000000016 1.08,0.7340000000000003 1.771,0.7340000000000003 H145.21413802146913 c0.6910000000000006,0 1.282,-0.24400000000000008 1.771,-0.7340000000000003 c0.49000000000000016,-0.49000000000000016 0.7340000000000003,-1.08 0.7340000000000003,-1.771 V73.4655169248581 c0,-0.6920000000000006 -0.24400000000000008,-1.282 -0.7340000000000003,-1.771 a2.414,2.414 0 0 0 -1.771,-0.7340000000000003 h-0.6850000000000006 c-0.04000000000000002,-0.3920000000000002 -0.09800000000000009,-0.777 -0.17700000000000007,-1.155 a8.334,8.334 0 0 0 -0.31300000000000017,-1.116 a7.056,7.056 0 0 0 -0.6550000000000004,-1.478 a5.414,5.414 0 0 0 -0.97,-1.204 a4.736,4.736 0 0 0 -1.546,-0.9690000000000003 a5.248,5.248 0 0 0 -1.9180000000000001,-0.3420000000000003 c-0.6920000000000006,0 -1.331,0.11000000000000004 -1.9180000000000001,0.3330000000000003 a4.663,4.663 0 0 0 -1.566,0.978 c-0.36600000000000016,0.35300000000000015 -0.6850000000000006,0.7500000000000003 -0.9600000000000003,1.194 a7.226,7.226 0 0 0 -0.6840000000000006,1.468 a9.28,9.28 0 0 0 -0.3230000000000002,1.126 c-0.08500000000000005,0.3850000000000002 -0.15400000000000008,0.773 -0.20600000000000004,1.165 zm2.525,0 a9.98,9.98 0 0 1 0.14700000000000008,-0.7440000000000003 a8.44,8.44 0 0 1 0.20500000000000004,-0.7250000000000003 a5.72,5.72 0 0 1 0.44000000000000017,-0.9400000000000003 c0.1640000000000001,-0.273 0.35000000000000014,-0.508 0.559,-0.7040000000000003 c0.23500000000000001,-0.20900000000000007 0.49600000000000016,-0.36800000000000016 0.783,-0.48000000000000015 c0.28700000000000014,-0.11000000000000004 0.6200000000000003,-0.1660000000000001 0.998,-0.1660000000000001 s0.7110000000000003,0.05600000000000002 0.998,0.16700000000000012 c0.28700000000000014,0.11000000000000004 0.542,0.27 0.7640000000000003,0.48000000000000015 c0.1950000000000001,0.18200000000000008 0.37500000000000017,0.41400000000000015 0.538,0.6940000000000006 c0.1630000000000001,0.28 0.30300000000000016,0.5900000000000003 0.42000000000000015,0.93 c0.08000000000000004,0.23500000000000001 0.14400000000000004,0.47600000000000015 0.1970000000000001,0.7240000000000003 c0.05200000000000003,0.24800000000000008 0.09700000000000009,0.503 0.137,0.7640000000000003 h-6.186 zM132.68513802146913,73.4655169248581 H145.21413802146913 v6.264 H132.68413802146912 V73.4655169248581 z" fill="#055A8C" id="svg_59"/></g></g><g mask="url(#b)" id="svg_60" class=""><g id="svg_61"><rect fill="#5AAC44" x="379.4491271972656" width="30" height="29" rx="2" y="59.96551513671875" id="svg_62"/><g fill="#3F6F21" fill-rule="nonzero" id="svg_63"><path d="M393.2911380214691,75.50051692485809 v-1.3130000000000002 c-1.5,-0.12000000000000002 -2.952,-0.5680000000000003 -4.323,-1.245 c-0.9640000000000003,-0.47500000000000014 -1.685,-0.9550000000000003 -2.105,-1.2930000000000001 l1.374,-1.7080000000000002 c0.06600000000000004,0.05300000000000003 0.21100000000000008,0.1600000000000001 0.42900000000000016,0.30500000000000016 c0.37300000000000016,0.24800000000000008 0.8,0.49700000000000016 1.272,0.7300000000000003 c1.081,0.534 2.213,0.8930000000000003 3.353,1.01 V66.43551692485809 h2.193 v5.47 c1.012,-0.17 2.064,-0.512 3.113,-0.985 c0.547,-0.24600000000000008 1.053,-0.51 1.505,-0.774 a9.79,9.79 0 0 0 0.539,-0.3340000000000003 l1.238,1.81 c-0.13,0.08900000000000007 -0.35900000000000015,0.234 -0.6720000000000006,0.41700000000000015 c-0.515,0.30000000000000016 -1.089,0.6000000000000003 -1.71,0.8800000000000003 c-1.332,0.6000000000000003 -2.681,1.025 -4.013,1.204 v1.44 c1.332,0.17900000000000008 2.681,0.6030000000000003 4.013,1.203 c0.6210000000000003,0.28 1.195,0.5800000000000003 1.71,0.8800000000000003 c0.31300000000000017,0.18300000000000008 0.542,0.3290000000000002 0.6720000000000006,0.41800000000000015 l-1.238,1.8090000000000002 a9.79,9.79 0 0 0 -0.54,-0.3340000000000003 a16.212,16.212 0 0 0 -1.504,-0.774 c-1.05,-0.47300000000000014 -2.1,-0.8150000000000003 -3.113,-0.985 v5.668 h-2.193 v-5.747 c-1.1400000000000001,0.11700000000000005 -2.2720000000000002,0.47600000000000015 -3.353,1.01 c-0.47200000000000014,0.232 -0.9,0.48100000000000015 -1.272,0.7300000000000003 a6.551,6.551 0 0 0 -0.42900000000000016,0.30400000000000016 l-1.374,-1.7080000000000002 c0.42000000000000015,-0.3370000000000003 1.141,-0.8170000000000003 2.105,-1.2930000000000001 c1.371,-0.6760000000000006 2.824,-1.125 4.323,-1.245 z" id="svg_64"/><path d="M403.2791380214691,74.79551692485809 a8.83,8.83 0 1 1 -17.66,0 a8.83,8.83 0 0 1 17.66,0 zm-2.193,0 a6.6370000000000005,6.6370000000000005 0 0 0 -6.638,-6.6370000000000005 a6.638,6.638 0 1 0 6.638,6.6370000000000005 z" id="svg_65"/></g></g></g><g mask="url(#b)" id="svg_66" class=""><g id="svg_67"><rect fill="#FF80CE" x="170.4491424560547" width="30" height="29" rx="2" y="16.965517044067383" id="svg_68"/><g fill="#CD5A91" fill-rule="nonzero" id="svg_69"><path d="M184.29113802146912,32.50051692485809 v-1.3130000000000002 c-1.5,-0.12000000000000002 -2.952,-0.5680000000000003 -4.323,-1.245 c-0.9640000000000003,-0.47500000000000014 -1.685,-0.9550000000000003 -2.105,-1.2930000000000001 l1.374,-1.7080000000000002 c0.06600000000000004,0.05300000000000003 0.21100000000000008,0.1600000000000001 0.42900000000000016,0.30500000000000016 c0.37300000000000016,0.24800000000000008 0.8,0.49700000000000016 1.272,0.7300000000000003 c1.081,0.534 2.213,0.8930000000000003 3.353,1.01 V23.435516924858092 h2.193 v5.47 c1.012,-0.17 2.064,-0.512 3.113,-0.985 c0.547,-0.24600000000000008 1.053,-0.51 1.505,-0.774 a9.79,9.79 0 0 0 0.539,-0.3340000000000003 l1.238,1.81 c-0.13,0.08900000000000007 -0.35900000000000015,0.234 -0.6720000000000006,0.41700000000000015 c-0.515,0.30000000000000016 -1.089,0.6000000000000003 -1.71,0.8800000000000003 c-1.332,0.6000000000000003 -2.681,1.025 -4.013,1.204 v1.44 c1.332,0.17900000000000008 2.681,0.6030000000000003 4.013,1.203 c0.6210000000000003,0.28 1.195,0.5800000000000003 1.71,0.8800000000000003 c0.31300000000000017,0.18300000000000008 0.542,0.3290000000000002 0.6720000000000006,0.41800000000000015 l-1.238,1.8090000000000002 a9.79,9.79 0 0 0 -0.54,-0.3340000000000003 a16.212,16.212 0 0 0 -1.504,-0.774 c-1.05,-0.47300000000000014 -2.1,-0.8150000000000003 -3.113,-0.985 v5.668 h-2.193 v-5.747 c-1.1400000000000001,0.11700000000000005 -2.2720000000000002,0.47600000000000015 -3.353,1.01 c-0.47200000000000014,0.232 -0.9,0.48100000000000015 -1.272,0.7300000000000003 a6.551,6.551 0 0 0 -0.42900000000000016,0.30400000000000016 l-1.374,-1.7080000000000002 c0.42000000000000015,-0.3370000000000003 1.141,-0.8170000000000003 2.105,-1.2930000000000001 c1.371,-0.6760000000000006 2.824,-1.125 4.323,-1.245 z" id="svg_70"/><path d="M194.27913802146912,31.79551692485809 a8.83,8.83 0 1 1 -17.66,0 a8.83,8.83 0 0 1 17.66,0 zm-2.193,0 a6.6370000000000005,6.6370000000000005 0 0 0 -6.638,-6.6370000000000005 a6.638,6.638 0 1 0 6.638,6.6370000000000005 z" id="svg_71"/></g></g></g><g mask="url(#b)" id="svg_72" class=""><g id="svg_73"><rect fill="#C377E0" x="334.4491271972656" width="30" height="29" rx="2" y="16.965517044067383" id="svg_74"/><path d="M344.2921380214691,28.96051692485809 h-0.6070000000000003 c-0.6910000000000006,0 -1.282,0.24400000000000008 -1.771,0.7340000000000003 c-0.49000000000000016,0.48900000000000016 -0.7340000000000003,1.08 -0.7340000000000003,1.771 v6.264 c0,0.6910000000000006 0.24400000000000008,1.282 0.7340000000000003,1.771 c0.49000000000000016,0.49000000000000016 1.08,0.7340000000000003 1.771,0.7340000000000003 H356.2141380214691 c0.6910000000000006,0 1.282,-0.24400000000000008 1.771,-0.7340000000000003 c0.49000000000000016,-0.49000000000000016 0.7340000000000003,-1.08 0.7340000000000003,-1.771 V31.465516924858093 c0,-0.6920000000000006 -0.24400000000000008,-1.282 -0.7340000000000003,-1.771 a2.414,2.414 0 0 0 -1.771,-0.7340000000000003 h-0.6850000000000006 c-0.04000000000000002,-0.3920000000000002 -0.09800000000000009,-0.777 -0.17700000000000007,-1.155 a8.334,8.334 0 0 0 -0.31300000000000017,-1.116 a7.056,7.056 0 0 0 -0.6550000000000004,-1.478 a5.414,5.414 0 0 0 -0.97,-1.204 a4.736,4.736 0 0 0 -1.546,-0.9690000000000003 a5.248,5.248 0 0 0 -1.9180000000000001,-0.3420000000000003 c-0.6920000000000006,0 -1.331,0.11000000000000004 -1.9180000000000001,0.3330000000000003 a4.663,4.663 0 0 0 -1.566,0.978 c-0.36600000000000016,0.35300000000000015 -0.6850000000000006,0.7500000000000003 -0.9600000000000003,1.194 a7.226,7.226 0 0 0 -0.6840000000000006,1.468 a9.28,9.28 0 0 0 -0.3230000000000002,1.126 c-0.08500000000000005,0.3850000000000002 -0.15400000000000008,0.773 -0.20600000000000004,1.165 zm2.525,0 a9.98,9.98 0 0 1 0.14700000000000008,-0.7440000000000003 a8.44,8.44 0 0 1 0.20500000000000004,-0.7250000000000003 a5.72,5.72 0 0 1 0.44000000000000017,-0.9400000000000003 c0.1640000000000001,-0.273 0.35000000000000014,-0.508 0.559,-0.7040000000000003 c0.23500000000000001,-0.20900000000000007 0.49600000000000016,-0.36800000000000016 0.783,-0.48000000000000015 c0.28700000000000014,-0.11000000000000004 0.6200000000000003,-0.1660000000000001 0.998,-0.1660000000000001 s0.7110000000000003,0.05600000000000002 0.998,0.16700000000000012 c0.28700000000000014,0.11000000000000004 0.542,0.27 0.7640000000000003,0.48000000000000015 c0.1950000000000001,0.18200000000000008 0.37500000000000017,0.41400000000000015 0.538,0.6940000000000006 c0.1630000000000001,0.28 0.30300000000000016,0.5900000000000003 0.42000000000000015,0.93 c0.08000000000000004,0.23500000000000001 0.14400000000000004,0.47600000000000015 0.1970000000000001,0.7240000000000003 c0.05200000000000003,0.24800000000000008 0.09700000000000009,0.503 0.137,0.7640000000000003 h-6.186 zM343.68513802146913,31.465516924858093 H356.2141380214691 v6.264 H343.6841380214691 V31.465516924858093 z" fill="#89609E" id="svg_75"/></g></g></g></svg>