<svg xmlns="http://www.w3.org/2000/svg" width="64" height="42" viewBox="0 0 64 42"><g><g><path fill="#42526e" d="M59.506.178A4.494 4.494 0 0 1 64 4.673v31.958a4.494 4.494 0 0 1-4.494 4.494H4.578a4.494 4.494 0 0 1-4.494-4.494V4.673A4.494 4.494 0 0 1 4.578.178zM25.921 29.14a.498.498 0 0 0-.499-.499H5.577c-.277 0-.5.223-.5.499v3.496c0 .276.223.499.5.499h19.845a.498.498 0 0 0 .499-.499zm33.085 0a.498.498 0 0 0-.499-.499h-5.243a.498.498 0 0 0-.499.499v3.496c0 .276.223.499.499.499h5.243a.498.498 0 0 0 .499-.499zm0-24.468H5.077v19.114h53.929z"/></g></g></svg>